<svg xmlns="http://www.w3.org/2000/svg" version="1.1" xmlns:xlink="http://www.w3.org/1999/xlink" width="64" height="64"><svg xmlns="http://www.w3.org/2000/svg" viewBox="0 0 64 64" id="SvgjsSvg1001" height="64" width="64">
  <desc>
    Pineapple Streamline Emoji: https://streamlinehq.com
  </desc>
  <path fill="#5c913b" d="M34.34115555555555 16.732444444444447c-0.4897777777777778 -5.848 3.8375111111111107 -8.346844444444445 3.8375111111111107 -8.346844444444445 -5.657066666666666 0.1998222222222222 -8.654577777777778 4.997511111111111 -8.654577777777778 4.997511111111111 -1.3297777777777777 -2.2988444444444442 1.6728888888888886 -7.0947555555555555 3.835733333333333 -8.345066666666666 -5.655466666666666 0.1998222222222222 -6.490133333333333 3.7489777777777777 -6.490133333333333 3.7489777777777777C24.21173333333333 4.187377777777778 25.048177777777777 0.6399999999999999 25.048177777777777 0.6399999999999999c-1.9824 1.1441777777777775 -3.1248 3.736711111111111 -3.7861333333333334 6.210666666666667L17.162844444444442 2.1290666666666667c-0.40675555555555554 1.846222222222222 0.2776888888888889 5.6128 1.0133333333333332 8.769422222222222 -5.402488888888889 -3.165333333333333 -10.438933333333333 -0.26524444444444445 -10.438933333333333 -0.26524444444444445C14.722488888888888 12.734222222222222 17.37511111111111 17.332088888888887 17.37511111111111 17.332088888888887s-6.981688888888889 -2.0992 -9.984533333333333 2.698488888888889c4.592711111111111 -0.16266666666666665 7.957866666666667 0.8824888888888889 10.35591111111111 2.175111111111111 -2.056711111111111 0.5111111111111111 -5.5617777777777775 -0.4172444444444444 -7.70151111111111 2.424533333333333 0 0 5.655466666666666 -0.1998222222222222 6.810133333333333 1.8657777777777778 -3.8408888888888884 1.085688888888889 -6.321955555555554 3.9806222222222223 -6.321955555555554 3.9806222222222223 7.819911111111111 -1.4465777777777777 16.133155555555554 2.9514666666666662 16.133155555555554 2.9514666666666662l10.820977777777777 -6.246044444444443c-1.8197333333333334 -8.147022222222223 4.672 -11.895999999999999 4.672 -11.895999999999999 -4.817066666666666 -3.351111111111111 -7.818133333333334 1.4465777777777777 -7.818133333333334 1.4465777777777777Z" stroke-width="1.7778"></path>
  <path fill="#ffac33" d="M54.357866666666666 40.15857777777778c4.399822222222221 7.620088888888888 2.1539555555555556 17.153599999999997 -5.017066666666666 21.293511111111112 -7.170844444444444 4.139911111111111 -16.5504 1.3192888888888887 -20.948444444444444 -6.299022222222222L25.58222222222222 50.28462222222222c-4.399822222222221 -7.621866666666667 -2.1521777777777773 -17.151822222222222 5.017066666666666 -21.29173333333333 7.170844444444444 -4.139733333333333 16.550577777777775 -1.3208888888888888 20.94862222222222 6.299022222222222l2.8099555555555553 4.866666666666666Z" stroke-width="1.7778"></path>
  <path fill="#ffcc4d" d="M56.129777777777775 44.55146666666666c-0.3696 -1.4997333333333334 -0.9548444444444444 -2.979911111111111 -1.771911111111111 -4.392888888888889l-0.32888888888888884 -0.5711999999999999v0.0017777777777777776l-3.4501333333333335 -1.4641777777777778 1.1034666666666666 -2.6014222222222223 -0.13262222222222222 -0.23164444444444443c-3.5811555555555556 -6.207111111111111 -10.468977777777777 -9.225777777777777 -16.775288888888888 -7.8976l-1.4464 3.4058666666666664 -3.331733333333333 -1.4147555555555553c-5.800355555555556 3.752711111111111 -8.076444444444444 11.174577777777777 -5.768533333333333 17.910577777777778l1.779022222222222 0.7550222222222223 -0.7091555555555554 1.6728888888888886c0.09724444444444444 0.18577777777777776 0.18026666666666666 0.37493333333333334 0.28817777777777775 0.5571555555555555l2.8101333333333334 4.868444444444444c1.2112 2.099022222222222 2.811733333333333 3.819733333333333 4.6296888888888885 5.144177777777778l0.4048 -0.9512888888888889 3.450311111111111 1.4641777777777778 -0.5729777777777777 1.3511111111111112c1.176 0.4897777777777778 2.3996444444444447 0.8222222222222222 3.644622222222222 1.0115555555555553l0.38026666666666664 -0.896711111111111 2.4810666666666665 1.0522666666666667c2.0231111111111106 -0.08497777777777778 4.031999999999999 -0.5941333333333333 5.911822222222222 -1.5615999999999999l-0.03004444444444444 -0.012266666666666665 1.4641777777777778 -3.4501333333333335 2.102577777777778 0.8911999999999999c0.9231999999999999 -0.9212444444444444 1.720711111111111 -1.9523555555555556 2.359111111111111 -3.0698666666666665l-2.9939555555555555 -1.2734222222222222 1.4643555555555554 -3.4501333333333335 2.947911111111111 1.2503111111111112c0.3377777777777778 -1.2378666666666667 0.5322666666666667 -2.5235555555555553 0.5587555555555556 -3.832177777777778l-2.042488888888889 -0.8664888888888889 1.4641777777777778 -3.4501333333333335 0.10968888888888888 0.051199999999999996Zm-10.98542222222222 -12.80871111111111 3.4485333333333332 1.4661333333333333 -1.4643555555555554 3.448355555555555 -3.4501333333333335 -1.4643555555555554 1.4659555555555555 -3.4501333333333335Zm0.5199999999999999 8.3664 -1.4641777777777778 3.448355555555555 -3.450311111111111 -1.4624 1.4643555555555554 -3.4501333333333335 3.4501333333333335 1.4641777777777778Zm-7.4220444444444444 -11.294933333333333 3.4501333333333335 1.4643555555555554 -1.4659555555555555 3.451911111111111 -3.4501333333333335 -1.4641777777777778 1.4659555555555555 -3.4520888888888885Zm-2.928533333333333 6.900444444444444 3.450311111111111 1.4641777777777778 -1.4643555555555554 3.4501333333333335 -3.448355555555555 -1.4641777777777778 1.4624 -3.4501333333333335Zm-6.900266666666667 -2.9267555555555558 3.448355555555555 1.4641777777777778 -1.4641777777777778 3.4467555555555554 -3.448355555555555 -1.4643555555555554 1.4641777777777778 -3.4465777777777777Zm-4.392711111111111 10.350577777777776 1.4641777777777778 -3.451911111111111 3.450311111111111 1.4641777777777778 -1.4661333333333333 3.451911111111111 -3.448355555555555 -1.4641777777777778Zm7.420266666666666 11.2912 -3.4501333333333335 -1.4624 1.4641777777777778 -3.4501333333333335 3.4501333333333335 1.4641777777777778 -1.4641777777777778 3.448355555555555Zm-0.5217777777777777 -8.364622222222222 1.4661333333333333 -3.4501333333333335 3.4501333333333335 1.4625777777777778 -1.4659555555555555 3.451911111111111 -3.450311111111111 -1.4643555555555554Zm7.420266666666666 11.293155555555556 -3.448355555555555 -1.4641777777777778 1.4641777777777778 -3.4485333333333332 3.4485333333333332 1.4661333333333333 -1.4643555555555554 3.4465777777777777Zm-0.5198222222222222 -8.364622222222222 1.4641777777777778 -3.451911111111111 3.4501333333333335 1.4659555555555555 -1.4641777777777778 3.451911111111111 -3.4501333333333335 -1.4659555555555555Zm7.4220444444444444 11.29671111111111 -3.450311111111111 -1.4643555555555554 1.4643555555555554 -3.4501333333333335 3.4501333333333335 1.4641777777777778 -1.4641777777777778 3.450311111111111Zm2.9301333333333335 -6.904 -3.448355555555555 -1.4624 1.4641777777777778 -3.451911111111111 3.4485333333333332 1.4641777777777778 -1.4643555555555554 3.4501333333333335Zm2.928533333333333 -6.898488888888888 -3.4501333333333335 -1.4643555555555554 1.4641777777777778 -3.448355555555555 3.4501333333333335 1.4625777777777778 -1.4641777777777778 3.4501333333333335Z" stroke-width="1.7778"></path>
</svg><style>@media (prefers-color-scheme: light) { :root { filter: none; } }
@media (prefers-color-scheme: dark) { :root { filter: none; } }
</style></svg>